<?xml version="1.0" standalone="no"?>
<!DOCTYPE svg PUBLIC "-//W3C//DTD SVG 20010904//EN"
 "http://www.w3.org/TR/2001/REC-SVG-20010904/DTD/svg10.dtd">
<svg version="1.0" xmlns="http://www.w3.org/2000/svg"
 width="700.000000pt" height="700.000000pt" viewBox="0 0 700.000000 700.000000"
 preserveAspectRatio="xMidYMid meet">
<metadata>
Created by potrace 1.11, written by Peter Selinger 2001-2013
</metadata>
<g transform="translate(0.000000,700.000000) scale(0.100000,-0.100000)"
fill="#000000" stroke="none">
<path d="M2797 6908 c-40 -234 -44 -483 -12 -713 44 -313 215 -609 529 -917
27 -26 53 -48 57 -48 8 0 17 41 45 200 19 104 25 426 11 540 -25 201 -102 391
-251 620 -104 158 -319 410 -351 410 -8 0 -18 -34 -28 -92z"/>
<path d="M4088 6921 c-125 -129 -208 -241 -335 -446 -20 -32 -99 -196 -116
-242 -18 -47 -52 -178 -62 -238 -11 -69 -14 -376 -4 -460 10 -87 37 -259 45
-287 3 -10 9 -18 14 -18 7 0 91 84 210 209 64 67 180 235 240 346 76 140 133
335 147 505 10 107 10 349 0 458 -8 87 -32 226 -42 242 -11 18 -22 11 -97 -69z"/>
<path d="M1613 6123 c-7 -3 -13 -9 -13 -15 0 -10 94 -158 123 -194 9 -10 39
-48 67 -84 100 -128 300 -316 420 -396 202 -135 470 -218 775 -239 227 -16
231 -16 213 18 -6 12 -40 66 -75 120 -181 276 -391 479 -612 592 -155 78 -410
151 -631 180 -113 15 -248 24 -267 18z"/>
<path d="M5297 6124 c-1 -1 -36 -4 -77 -8 -41 -3 -86 -8 -100 -11 -14 -3 -47
-7 -74 -11 -27 -3 -109 -20 -182 -39 -414 -104 -624 -244 -907 -605 -34 -43
-166 -254 -162 -259 11 -11 250 1 358 19 34 5 80 12 102 16 152 23 388 112
522 197 99 63 298 246 410 377 44 53 171 230 198 277 11 18 16 36 12 40 -6 6
-94 12 -100 7z"/>
<path d="M3318 4875 c-2 -1 -57 -5 -123 -9 -66 -4 -138 -8 -160 -11 -22 -2
-67 -7 -100 -10 -54 -5 -98 -11 -215 -29 -63 -10 -94 -16 -190 -37 -520 -114
-908 -316 -1086 -565 -173 -242 -252 -644 -220 -1114 7 -101 8 -121 21 -220
47 -369 175 -819 334 -1175 109 -243 308 -587 425 -737 12 -14 32 -41 46 -59
110 -146 335 -376 480 -490 240 -190 507 -328 760 -395 47 -13 105 -18 210
-18 150 0 208 10 330 56 30 11 60 21 65 22 51 12 276 127 378 192 307 199 568
463 818 829 99 145 266 448 328 595 13 30 31 73 41 95 67 151 184 514 227 699
20 89 58 307 68 391 3 28 8 64 10 81 18 129 23 406 11 549 -26 298 -100 530
-221 700 -144 202 -447 384 -836 500 -78 24 -271 71 -329 81 -14 3 -47 9 -75
14 -68 13 -176 28 -260 35 -38 3 -81 8 -95 10 -89 13 -630 30 -642 20z m532
-489 c25 -3 77 -8 115 -11 39 -2 81 -7 94 -10 12 -2 42 -6 65 -9 220 -27 518
-103 690 -177 202 -87 345 -200 397 -314 29 -64 58 -155 65 -205 2 -17 6 -45
9 -62 25 -161 25 -451 -1 -643 -90 -675 -370 -1342 -767 -1825 -131 -159 -360
-366 -506 -457 -83 -52 -301 -154 -370 -172 -108 -30 -229 -23 -337 17 -109
41 -314 145 -322 165 -2 4 -8 7 -12 7 -23 0 -225 164 -324 264 -383 384 -655
883 -840 1541 -29 101 -64 279 -90 455 -19 126 -26 436 -12 560 6 57 16 126
30 195 9 47 49 153 73 194 110 189 446 347 933 436 14 3 34 7 45 9 11 2 46 7
79 11 32 3 68 8 80 10 45 7 115 14 211 21 55 3 101 7 103 9 5 4 548 -4 592 -9z"/>
<path d="M2785 3934 c-47 -24 -73 -53 -102 -113 -25 -50 -28 -67 -28 -161 0
-96 3 -110 28 -160 136 -265 409 -79 353 240 -27 151 -151 247 -251 194z"/>
<path d="M4016 3921 c-173 -122 -142 -487 46 -543 120 -36 239 113 232 292 -2
72 -8 98 -33 153 -52 114 -160 157 -245 98z"/>
<path d="M2182 3099 c-140 -70 -176 -338 -64 -486 30 -40 101 -76 139 -69 15
2 34 5 40 5 24 2 94 74 112 115 27 59 31 75 36 144 14 203 -127 359 -263 291z"/>
<path d="M3444 3106 c-53 -23 -115 -105 -130 -171 -41 -187 45 -383 173 -390
52 -3 87 11 128 53 104 107 108 342 8 458 -47 53 -123 75 -179 50z"/>
<path d="M4695 3105 c-150 -64 -189 -353 -67 -496 59 -68 116 -83 188 -49 154
75 180 377 44 511 -41 41 -114 56 -165 34z"/>
<path d="M2805 2294 c-51 -17 -99 -66 -126 -128 -19 -42 -23 -69 -24 -151 0
-87 3 -107 26 -155 72 -152 211 -179 299 -58 93 128 82 345 -23 449 -46 46
-100 61 -152 43z"/>
<path d="M4024 2281 c-146 -89 -165 -382 -32 -507 129 -123 301 8 302 229 0
108 -27 189 -81 246 -52 54 -131 67 -189 32z"/>
<path d="M3421 1484 c-168 -115 -151 -465 27 -540 68 -28 129 -4 189 75 43 56
57 108 56 211 0 69 -5 95 -25 140 -58 126 -160 174 -247 114z"/>
</g>
</svg>
