<?xml version="1.0" encoding="UTF-8" standalone="no"?>
<!-- Generator: Adobe Illustrator 16.0.0, SVG Export Plug-In . SVG Version: 6.00 Build 0)  -->

<svg
   xmlns:dc="http://purl.org/dc/elements/1.1/"
   xmlns:cc="http://creativecommons.org/ns#"
   xmlns:rdf="http://www.w3.org/1999/02/22-rdf-syntax-ns#"
   xmlns:svg="http://www.w3.org/2000/svg"
   xmlns="http://www.w3.org/2000/svg"
   xmlns:sodipodi="http://sodipodi.sourceforge.net/DTD/sodipodi-0.dtd"
   xmlns:inkscape="http://www.inkscape.org/namespaces/inkscape"
   version="1.1"
   id="Layer_1"
   x="0px"
   y="0px"
   width="24px"
   height="24px"
   viewBox="0 0 24 24"
   enable-background="new 0 0 24 24"
   xml:space="preserve"
   inkscape:version="0.91 r13725"
   sodipodi:docname="aardbei_color.svg"><metadata
     id="metadata3442"><rdf:RDF><cc:Work
         rdf:about=""><dc:format>image/svg+xml</dc:format><dc:type
           rdf:resource="http://purl.org/dc/dcmitype/StillImage" /><dc:title></dc:title></cc:Work></rdf:RDF></metadata><defs
     id="defs3440" /><sodipodi:namedview
     pagecolor="#ffffff"
     bordercolor="#666666"
     borderopacity="1"
     objecttolerance="10"
     gridtolerance="10"
     guidetolerance="10"
     inkscape:pageopacity="0"
     inkscape:pageshadow="2"
     inkscape:window-width="1362"
     inkscape:window-height="729"
     id="namedview3438"
     showgrid="false"
     inkscape:zoom="22.458333"
     inkscape:cx="5.9888683"
     inkscape:cy="12"
     inkscape:window-x="0"
     inkscape:window-y="18"
     inkscape:window-maximized="0"
     inkscape:current-layer="layer2" /><g
     inkscape:groupmode="layer"
     id="layer1"
     inkscape:label="Background"
     style="display:inline"><path
       style="fill:#ff0000;fill-opacity:1"
       id="path3445"
       d="M 18.843,9.288 C 16.311,6.602 7.69,6.602 5.157,9.288 c -2.369,2.521 -0.37,11.441 4.777,14.105 1.559,0.809 2.573,0.809 4.132,0 5.147,-2.664 7.145,-11.583 4.777,-14.105 z"
       inkscape:connector-curvature="0"
       sodipodi:nodetypes="ccccc" /></g><g
     inkscape:groupmode="layer"
     id="layer2"
     inkscape:label="Obect"><g
       style=""
       id="g3410"><path
         d="M7.424,5.269c1.028,0.782,2.469,0.925,3.169,0.945c0.509,0.017,0.48,0.088,0.221-0.338c-0.361-0.593-1.212-1.79-2.42-2.292   C7.157,3.068,6.028,2.999,5.555,2.997c-0.06,0.001-0.09,0.052-0.06,0.102C5.732,3.512,6.356,4.452,7.424,5.269z"
         id="path3412" /><path
         d="M9.76,16.101c-0.375,0-0.681,0.445-0.681,0.99c0,0.553,0.305,0.998,0.681,0.998c0.376,0,0.681-0.445,0.681-0.998   C10.441,16.546,10.136,16.101,9.76,16.101z"
         id="path3414" /><ellipse
         cx="7.708"
         cy="14.297"
         rx="0.683"
         ry="0.991"
         id="ellipse3416" /><path
         d="M11.263,5.807c0.348,0.335,0.291,0.394,0.382-0.042c0.133-0.649,0.353-2.156-0.211-3.385   c-0.561-1.219-1.343-2.033-1.687-2.357C9.702-0.02,9.645-0.001,9.631,0.059c-0.102,0.46-0.282,1.578-0.054,2.897   C9.8,4.236,10.761,5.317,11.263,5.807z"
         id="path3418" /><path
         d="M13.157,5.928c-0.207,0.337-0.254,0.29,0.126,0.287c0.638-0.004,2.197-0.115,3.292-0.946   c1.068-0.816,1.691-1.757,1.929-2.17c0.03-0.05,0-0.101-0.06-0.102c-0.473,0.002-1.603,0.071-2.838,0.587   C14.358,4.104,13.496,5.362,13.157,5.928z"
         id="path3420" /><path
         d="M12.737,5.805c0.501-0.487,1.463-1.568,1.686-2.849c0.229-1.319,0.048-2.438-0.054-2.9   c-0.014-0.057-0.071-0.075-0.116-0.033c-0.344,0.324-1.126,1.139-1.687,2.357c-0.528,1.155-0.368,2.552-0.236,3.255   C12.435,6.186,12.353,6.182,12.737,5.805z"
         id="path3422" /><path
         d="M9.76,10.456c-0.375,0-0.681,0.444-0.681,0.989c0,0.553,0.305,0.998,0.681,0.998c0.376,0,0.681-0.445,0.681-0.998   C10.441,10.9,10.136,10.456,9.76,10.456z"
         id="path3424" /><path
         d="M14.052,10.456c-0.376,0-0.681,0.444-0.681,0.989c0,0.553,0.305,0.998,0.681,0.998s0.681-0.445,0.681-0.998   C14.733,10.9,14.428,10.456,14.052,10.456z"
         id="path3426" /><ellipse
         cx="16.293"
         cy="14.297"
         rx="0.682"
         ry="0.991"
         id="ellipse3428" /><ellipse
         cx="12"
         cy="19.811"
         rx="0.681"
         ry="0.993"
         id="ellipse3430" /><path
         d="M18.843,9.288c-2.532-2.686-11.153-2.686-13.686,0c-2.369,2.521-0.37,11.441,4.777,14.105c1.559,0.809,2.573,0.809,4.132,0   C19.213,20.729,21.211,11.81,18.843,9.288z M18.179,13.226c-0.103,1.651-0.623,3.391-1.365,4.861   c-0.775,1.527-1.946,3.055-3.499,3.855c-1.081,0.561-1.549,0.561-2.63,0c-1.553-0.801-2.724-2.328-3.499-3.855   c-0.742-1.471-1.262-3.21-1.365-4.861c-0.047-0.731-0.02-2.235,0.527-2.816c1.875-1.992,9.43-1.992,11.305,0   C18.199,10.99,18.226,12.494,18.179,13.226z"
         id="path3432" /><ellipse
         cx="12"
         cy="14.297"
         rx="0.681"
         ry="0.991"
         id="ellipse3434" /><path
         d="M14.052,16.101c-0.376,0-0.681,0.445-0.681,0.99c0,0.553,0.305,0.998,0.681,0.998s0.681-0.445,0.681-0.998   C14.733,16.546,14.428,16.101,14.052,16.101z"
         id="path3436" /></g></g></svg>